HIERARCHY
ROOT joint_0
{
	OFFSET 0.000000 0.000000 0.000000
	CHANNELS 6 Xposition Yposition Zposition Zrotation Yrotation Xrotation 
	JOINT joint_1
	{
		OFFSET 10.084412 4.114712 95.061035
		CHANNELS 3 Zrotation Yrotation Xrotation
		JOINT joint_2
		{
			OFFSET -1.615463 4.243484 87.329956
			CHANNELS 3 Zrotation Yrotation Xrotation
			JOINT joint_3
			{
				OFFSET -3.579636 4.638191 87.154053
				CHANNELS 3 Zrotation Yrotation Xrotation
				JOINT joint_4
				{
					OFFSET 5.443451 7.217075 123.562988
					CHANNELS 3 Zrotation Yrotation Xrotation
					JOINT joint_5
					{
						OFFSET 21.688065 15.141808 90.458008
						CHANNELS 3 Zrotation Yrotation Xrotation
						End Site
						{
							OFFSET 0.000000 0.000000 0.000000
						}
					}
				}
				JOINT joint_6
				{
					OFFSET 3.611374 -22.863556 70.791992
					CHANNELS 3 Zrotation Yrotation Xrotation
					JOINT joint_7
					{
						OFFSET 3.493607 -153.029137 -12.665039
						CHANNELS 3 Zrotation Yrotation Xrotation
						JOINT joint_8
						{
							OFFSET -14.929443 -32.628616 -254.032959
							CHANNELS 3 Zrotation Yrotation Xrotation
							JOINT joint_9
							{
								OFFSET 11.589401 -3.548126 -242.255005
								CHANNELS 3 Zrotation Yrotation Xrotation
								End Site
								{
									OFFSET 0.000000 0.000000 0.000000
								}
							}
						}
					}
				}
				JOINT joint_10
				{
					OFFSET 2.651962 30.943008 67.690918
					CHANNELS 3 Zrotation Yrotation Xrotation
					JOINT joint_11
					{
						OFFSET -6.172562 150.392159 -30.576904
						CHANNELS 3 Zrotation Yrotation Xrotation
						JOINT joint_12
						{
							OFFSET 15.363358 20.741959 -255.254028
							CHANNELS 3 Zrotation Yrotation Xrotation
							JOINT joint_13
							{
								OFFSET 23.282578 -11.086121 -241.182983
								CHANNELS 3 Zrotation Yrotation Xrotation
								End Site
								{
									OFFSET 0.000000 0.000000 0.000000
								}
							}
						}
					}
				}
			}
		}
	}
	JOINT joint_14
	{
		OFFSET -7.080551 -92.910816 -106.291992
		CHANNELS 3 Zrotation Yrotation Xrotation
		JOINT joint_15
		{
			OFFSET -38.248322 -6.001282 -411.906006
			CHANNELS 3 Zrotation Yrotation Xrotation
			JOINT joint_16
			{
				OFFSET -11.189407 -11.244659 -448.150986
				CHANNELS 3 Zrotation Yrotation Xrotation
				JOINT joint_17
				{
					OFFSET 169.870491 -24.631378 -80.352999
					CHANNELS 3 Zrotation Yrotation Xrotation
					End Site
					{
						OFFSET 0.000000 0.000000 0.000000
					}
				}
			}
		}
	}
	JOINT joint_18
	{
		OFFSET -2.796600 85.817772 -112.273987
		CHANNELS 3 Zrotation Yrotation Xrotation
		JOINT joint_19
		{
			OFFSET -44.395859 -8.174402 -411.255005
			CHANNELS 3 Zrotation Yrotation Xrotation
			JOINT joint_20
			{
				OFFSET -25.617508 -5.555587 -447.666992
				CHANNELS 3 Zrotation Yrotation Xrotation
				JOINT joint_21
				{
					OFFSET 163.870811 53.215703 -78.867000
					CHANNELS 3 Zrotation Yrotation Xrotation
					End Site
					{
						OFFSET 0.000000 0.000000 0.000000
					}
				}
			}
		}
	}
}
MOTION
Frames: 14
Frame Time: 0.016667
468.913086 -72.002678 1067.451050 1.716919 0.302462 5.975439 -0.699427 -0.771691 3.347109 -0.435663 0.142282 -0.707608 -0.193123 -0.182502 0.554883 -3.157776 4.738147 9.801933 0.000000 0.000000 0.000000 -1.294149 -37.998990 -0.014276 -4.986048 -8.701309 -0.838447 -8.026191 32.100087 109.765959 0.000000 0.000000 0.000000 3.914572 -22.771814 3.445495 45.128803 -12.519461 2.040871 31.728775 -79.530619 -99.109786 0.000000 0.000000 0.000000 3.447124 -24.391192 -14.257564 2.278796 26.492181 1.003749 3.848057 5.358257 2.521039 0.000000 0.000000 0.000000 -4.851370 -12.287548 3.130175 -3.697927 35.360297 -11.484694 -5.586502 1.295075 -2.778113 0.000000 0.000000 0.000000 
480.589264 -75.938202 1062.494995 2.402090 -0.290182 6.167840 -0.846646 -0.582380 3.004908 -0.607977 0.112546 -0.654304 -0.335157 -0.095135 0.486883 -3.271952 5.032006 10.147326 0.000000 0.000000 0.000000 -1.314085 -39.102099 -0.106870 -3.170567 -8.303725 -1.144608 -6.386443 37.209718 112.305892 0.000000 0.000000 0.000000 3.931697 -23.301769 3.722135 44.055102 -13.143735 2.844672 30.975191 -72.213492 -98.670603 0.000000 0.000000 0.000000 3.610954 -24.161945 -14.245927 1.933812 26.973140 0.823443 3.502505 4.989178 2.300008 0.000000 0.000000 0.000000 -5.581425 -13.572167 4.531382 -4.309610 39.524549 -13.774388 -6.956464 2.401598 -3.701576 0.000000 0.000000 0.000000 
492.135651 -79.745514 1056.593994 3.218445 -0.654953 6.266379 -1.025742 -0.400585 2.774006 -0.809320 0.084495 -0.572670 -0.487192 -0.033961 0.468630 -3.246327 4.983524 10.302018 0.000000 0.000000 0.000000 -1.460051 -40.014440 -0.205317 -0.904425 -7.804784 -1.429592 -4.253094 41.632725 115.751130 0.000000 0.000000 0.000000 4.287383 -23.874020 3.670851 44.951905 -13.402703 3.171024 31.568924 -67.710157 -101.106934 0.000000 0.000000 0.000000 3.703879 -23.807095 -14.353785 1.192126 28.189157 0.913477 2.729034 2.419538 1.554164 0.000000 0.000000 0.000000 -6.341405 -15.386660 6.474839 -4.996299 44.573481 -16.792990 -8.589055 3.638528 -4.804073 0.000000 0.000000 0.000000 
503.509552 -83.660187 1049.541992 4.081272 -0.852906 6.175128 -1.282476 -0.150784 2.795355 -1.003062 0.012581 -0.572645 -0.596339 0.019800 0.467790 -3.110371 4.703677 10.340206 0.000000 0.000000 0.000000 -1.762593 -40.864491 -0.265966 1.824109 -7.190598 -1.730376 -1.591690 45.009588 120.169844 0.000000 0.000000 0.000000 4.896144 -24.368817 3.362875 46.719212 -13.519092 3.252719 32.825033 -64.555016 -104.832756 0.000000 0.000000 0.000000 3.798113 -23.442601 -14.386757 0.183821 30.474576 1.376947 1.668000 -1.938372 0.430001 0.000000 0.000000 0.000000 -7.214918 -17.580108 9.083688 -5.861667 50.376159 -20.345923 -10.660094 5.471573 -6.359297 0.000000 0.000000 0.000000 
514.363220 -86.723297 1043.139038 4.779995 -1.009169 6.037296 -1.597378 0.250831 2.931020 -1.109122 -0.127895 -0.628460 -0.601720 0.071543 0.464747 -2.953408 4.378114 10.419943 0.000000 0.000000 0.000000 -2.077471 -41.584403 -0.310668 4.089714 -6.612761 -1.948350 0.670722 46.582747 123.937607 0.000000 0.000000 0.000000 5.554424 -24.633240 2.970178 48.497638 -13.584877 3.164208 34.047929 -62.796189 -108.254921 0.000000 0.000000 0.000000 4.000849 -23.230045 -14.507325 -0.615055 33.005109 2.047412 0.838726 -5.826678 -0.507900 0.000000 0.000000 0.000000 -7.790480 -19.630445 11.557831 -6.500245 55.594408 -23.234444 -12.033872 7.122877 -7.676440 0.000000 0.000000 0.000000 
524.370728 -88.110229 1038.741943 5.204365 -1.087210 6.028309 -1.847752 0.633227 2.953605 -1.124003 -0.219308 -0.654542 -0.559623 0.118811 0.445063 -2.877427 4.104660 10.657770 0.000000 0.000000 0.000000 -2.271547 -41.967052 -0.377084 5.433240 -6.254929 -2.072657 1.997910 46.849825 126.149208 0.000000 0.000000 0.000000 6.210763 -24.785491 2.565531 50.771366 -13.518147 2.816443 35.465779 -64.132474 -111.731481 0.000000 0.000000 0.000000 4.433411 -23.592300 -15.039998 -0.960192 35.562114 2.849237 0.591109 -7.878870 -0.924937 0.000000 0.000000 0.000000 -7.756902 -21.530879 13.310222 -6.534476 59.795766 -25.021265 -11.589818 7.325954 -7.802542 0.000000 0.000000 0.000000 
533.662354 -88.192215 1035.659058 5.479578 -1.049032 6.126912 -2.019715 0.970972 2.855278 -1.108698 -0.253774 -0.637508 -0.530326 0.154454 0.419890 -2.866720 3.815926 10.994077 0.000000 0.000000 0.000000 -2.400396 -41.992204 -0.456312 6.267177 -6.095671 -2.171694 2.788788 46.523999 127.480234 0.000000 0.000000 0.000000 6.996912 -25.202958 2.053181 54.789742 -13.213710 2.214939 37.851110 -68.317876 -117.333498 0.000000 0.000000 0.000000 5.054652 -24.429979 -15.988737 -1.035455 38.436552 3.856886 0.755280 -8.857338 -1.014317 0.000000 0.000000 0.000000 -7.337807 -23.509948 14.602456 -6.147552 63.529769 -26.224417 -9.928728 6.138636 -6.887612 0.000000 0.000000 0.000000 
542.677368 -87.764839 1033.197021 5.758090 -0.969102 6.248340 -2.124258 1.232725 2.689863 -1.116527 -0.285997 -0.608065 -0.544815 0.176484 0.402630 -2.886135 3.567582 11.318608 0.000000 0.000000 0.000000 -2.552510 -41.982177 -0.494104 6.825853 -5.999579 -2.318492 3.320649 46.090086 128.480677 0.000000 0.000000 0.000000 7.651666 -25.812808 1.624928 58.806443 -12.923392 1.766344 40.117266 -71.207930 -123.069268 0.000000 0.000000 0.000000 5.472553 -25.074710 -16.854837 -1.046339 40.770614 4.683810 1.027314 -9.593101 -1.024365 0.000000 0.000000 0.000000 -6.971452 -25.291225 15.594472 -5.780905 65.666285 -26.828426 -8.335595 4.164934 -5.537071 0.000000 0.000000 0.000000 
551.733459 -87.451096 1031.006958 6.107897 -0.845100 6.328697 -2.127131 1.306101 2.501784 -1.161634 -0.310173 -0.605108 -0.614150 0.175338 0.402646 -2.912935 3.408581 11.556155 0.000000 0.000000 0.000000 -2.809511 -42.167063 -0.402739 7.146838 -5.885003 -2.526954 3.677060 45.759552 129.354538 0.000000 0.000000 0.000000 7.887399 -26.215330 1.484085 60.307454 -12.859946 1.655610 41.016086 -71.407939 -125.347024 0.000000 0.000000 0.000000 5.387241 -25.083231 -17.199102 -1.138617 41.865805 5.000882 1.129133 -10.809322 -1.171378 0.000000 0.000000 0.000000 -6.851504 -26.660924 16.423506 -5.674361 65.081466 -26.895257 -7.106038 1.967426 -4.183898 0.000000 0.000000 0.000000 
560.667847 -86.962692 1029.334961 6.468615 -0.641126 6.393210 -2.019390 1.193674 2.281130 -1.227872 -0.302362 -0.618525 -0.722854 0.155576 0.412348 -2.960476 3.314302 11.744137 0.000000 0.000000 0.000000 -3.137659 -42.418501 -0.201094 7.220029 -5.798311 -2.783746 3.829701 45.512973 130.027744 0.000000 0.000000 0.000000 7.801501 -26.438423 1.564820 59.957062 -12.902636 1.711179 40.959058 -70.365742 -124.988126 0.000000 0.000000 0.000000 4.949299 -24.732144 -17.197257 -1.244514 42.075696 4.947152 1.158194 -12.252727 -1.374670 0.000000 0.000000 0.000000 -6.749346 -27.640398 17.000754 -5.548104 61.964117 -26.388981 -5.741208 -0.316834 -2.760074 0.000000 0.000000 0.000000 
569.329895 -85.766724 1027.836060 6.825706 -0.445326 6.430674 -1.957431 1.020123 2.115757 -1.335293 -0.267629 -0.630001 -0.862493 0.122125 0.425971 -3.004621 3.265000 11.870549 0.000000 0.000000 0.000000 -3.412779 -42.737889 -0.140943 7.345049 -5.648869 -3.167100 3.981603 45.286762 130.885341 0.000000 0.000000 0.000000 7.527157 -26.168523 1.768788 57.786135 -12.985194 1.967603 39.771617 -67.371466 -122.302245 0.000000 0.000000 0.000000 4.402250 -24.407375 -17.174751 -1.286220 42.235042 4.837284 1.302138 -13.497377 -1.497601 0.000000 0.000000 0.000000 -6.704828 -28.316021 17.256484 -5.354438 57.490747 -25.155799 -4.787532 -2.138466 -1.648294 0.000000 0.000000 0.000000 
577.608337 -83.507591 1026.396973 7.296514 -0.268847 6.443856 -2.030957 0.767916 2.032763 -1.548219 -0.156416 -0.599281 -1.114701 0.070243 0.437351 -3.024850 3.241478 11.918154 0.000000 0.000000 0.000000 -3.517602 -43.139834 -0.432116 7.762592 -5.359470 -3.810055 4.301043 45.000300 132.296972 0.000000 0.000000 0.000000 7.115089 -25.184029 2.076086 53.854411 -13.085376 2.488211 37.244153 -60.689560 -117.923827 0.000000 0.000000 0.000000 3.820944 -24.437166 -17.376301 -1.221222 42.937223 4.863302 1.729529 -14.196648 -1.421613 0.000000 0.000000 0.000000 -6.887362 -28.802659 17.093422 -5.209330 52.046665 -22.947593 -4.591338 -3.429420 -0.999529 0.000000 0.000000 0.000000 
585.556519 -80.376030 1025.160034 7.753431 -0.153599 6.380580 -2.206001 0.577684 2.101935 -1.794177 -0.065094 -0.576599 -1.394174 0.005154 0.442860 -3.028993 3.254121 11.888819 0.000000 0.000000 0.000000 -3.488970 -43.587881 -0.955032 8.327887 -4.994020 -4.725211 4.702982 44.662937 134.086509 0.000000 0.000000 0.000000 6.605843 -23.999857 2.497949 49.504855 -13.160966 3.181347 34.268397 -50.518780 -114.329945 0.000000 0.000000 0.000000 3.139942 -24.614084 -17.574114 -1.046501 43.861977 4.871405 2.392036 -14.483570 -1.183613 0.000000 0.000000 0.000000 -7.182631 -28.643662 16.485373 -5.074648 44.766757 -19.396253 -4.883988 -3.689694 -0.915580 0.000000 0.000000 0.000000 
593.260925 -76.470604 1023.536011 7.688636 -0.243499 6.199342 -2.358468 0.723274 2.427719 -1.893557 -0.166170 -0.652771 -1.499847 -0.025152 0.454193 -3.018950 3.327180 11.817907 0.000000 0.000000 0.000000 -3.456394 -44.002563 -1.474520 8.716691 -4.693144 -5.622161 5.001193 44.357760 135.618113 0.000000 0.000000 0.000000 6.279433 -23.193521 2.806471 46.415017 -13.120256 3.754598 32.166222 -41.708347 -113.110703 0.000000 0.000000 0.000000 2.702204 -24.626126 -17.624953 -0.757155 44.790981 4.884828 3.072937 -14.749085 -0.936323 0.000000 0.000000 0.000000 -7.372274 -27.638480 15.843278 -5.019093 37.705974 -15.619827 -5.373691 -2.690680 -1.387090 0.000000 0.000000 0.000000 
